<?xml version="1.0" encoding="UTF-8"?>
<svg version="1.1" xmlns="http://www.w3.org/2000/svg" width="512" height="512">
<path d="M0 0 C5.70927486 4.58931299 10.89852829 9.75692183 16.0612793 14.94102478 C16.83173899 15.71063005 17.60219868 16.48023531 18.39600563 17.27316195 C20.95778776 19.83330678 23.51599706 22.39699114 26.07421875 24.96069336 C27.91752498 26.80428186 29.76105183 28.64764979 31.6047821 30.49081421 C35.56398336 34.44949297 39.52136024 38.40998783 43.47747803 42.37174797 C49.19725188 48.09967423 54.91980913 53.82481312 60.6430335 59.54929144 C69.93015996 68.83860255 79.21505446 78.13014121 88.49853516 87.4230957 C97.51265784 96.44640769 106.52783788 105.46866113 115.54443359 114.48950195 C116.10089998 115.04623106 116.65736636 115.60296017 117.23069537 116.17655986 C120.02253438 118.96970397 122.8143941 121.76282739 125.60626411 124.55594051 C148.74072111 147.70075185 171.87155141 170.84918448 195 194 C198.01837539 192.64756616 200.10466173 191.14162622 202.43155861 188.80057049 C203.42702216 187.80645484 203.42702216 187.80645484 204.44259608 186.79225606 C205.16340369 186.06221216 205.8842113 185.33216827 206.62686157 184.58000183 C207.39909856 183.80594586 208.17133555 183.03188989 208.96697366 182.23437768 C211.56167847 179.63123812 214.14916413 177.02103752 216.73681641 174.41088867 C218.59261292 172.54634525 220.44888672 170.68227678 222.30560303 168.81864929 C226.3081758 164.80006535 230.30734097 160.77811631 234.30449295 156.75414085 C240.62665069 150.39005083 246.95861117 144.03576442 253.29208374 137.68293762 C255.45976493 135.50837636 257.62736996 133.33373922 259.79494286 131.15907001 C260.33666054 130.61558068 260.87837822 130.07209135 261.43651158 129.51213264 C267.60256778 123.32558163 273.76628926 117.13670657 279.92919922 110.94702148 C280.49253091 110.38124723 281.05586261 109.81547298 281.63626496 109.23255406 C290.757935 100.07090738 299.8736442 90.90334636 308.98804159 81.73446544 C318.35138891 72.31563003 327.72439704 62.90647935 337.10553491 53.50536329 C342.88797849 47.70986412 348.6623156 41.90651855 354.42638306 36.09274159 C358.38089928 32.10543495 362.34451328 28.12732409 366.31529935 24.15622016 C368.60349895 21.86725623 370.88603703 19.57311364 373.16044998 17.27043915 C375.63257509 14.76885194 378.11979161 12.28327426 380.61123657 9.8009491 C381.31865986 9.07759737 382.02608314 8.35424564 382.75494349 7.60897416 C389.47807673 0.97216373 396.95285735 -3.57033536 406.55859375 -4.06640625 C419.32315358 -3.71921022 427.1414797 3.59990444 435.78320312 12.28222656 C437.24756743 13.74756581 438.73201972 15.1902134 440.21875 16.6328125 C446.75409176 23.08129992 451.19701568 28.60062269 452.56640625 37.80859375 C452.54622826 56.55395012 441.16898593 65.98462863 428.58825684 78.55218506 C427.68445203 79.45896098 426.78064723 80.36573691 425.8494544 81.29999089 C423.36963446 83.7877826 420.886777 86.27252227 418.4033401 88.75670266 C415.71442717 91.44748327 413.02836162 94.141104 410.34187317 96.83430481 C404.48317168 102.70651515 398.62076055 108.57501241 392.75750923 114.44267941 C389.09258395 118.11037706 385.42839256 121.7788073 381.764328 125.44736481 C371.60554928 135.61832131 361.44583497 145.7883412 351.28266144 155.95490646 C350.30951853 156.92837872 350.30951853 156.92837872 349.31671616 157.92151709 C348.66648469 158.57196684 348.01625322 159.22241659 347.34631777 159.89257693 C346.02889128 161.21044687 344.71146635 162.52831837 343.39404297 163.84619141 C342.74056741 164.49988839 342.08709185 165.15358538 341.41381401 165.82709137 C330.8131164 176.4317415 320.21919695 187.04313552 309.62816042 197.65743348 C298.73676157 208.57255923 287.83973257 219.48203762 276.93704653 230.38588929 C270.82260332 236.50124795 264.71058507 242.61898679 258.6047821 248.74297333 C253.40963526 253.95353849 248.20935485 259.15891139 243.00236976 264.35764757 C240.34832904 267.00778936 237.69673956 269.66026426 235.05169106 272.31938362 C232.17983165 275.20638024 229.29639292 278.08153283 226.41174316 280.95574951 C225.17042578 282.2091515 225.17042578 282.2091515 223.90403128 283.48787475 C216.00070884 291.32461358 208.22486304 297.80736151 196.6875 298.3125 C188.9119502 298.04892204 183.07189447 296.33102547 177.29805565 290.97593689 C175.98920375 289.76354245 175.98920375 289.76354245 174.6539104 288.5266552 C170.43725888 284.51219243 166.286545 280.43804859 162.16860962 276.32250977 C161.2225741 275.38050238 160.27633287 274.43870155 159.32990682 273.49708652 C156.75845224 270.93744967 154.19003067 268.37478913 151.62217832 265.81153917 C148.84140823 263.03678098 146.05785245 260.26481931 143.27474976 257.49240112 C136.5745587 250.81658821 129.87918424 244.13595519 123.18470436 237.4544158 C121.29243083 235.56586171 119.40003095 233.67743433 117.50758696 231.78905106 C105.73687473 220.04355789 93.96775371 208.29647284 82.20340919 196.54460144 C79.48669996 193.83082143 76.76997446 191.1170577 74.05322266 188.40332031 C73.37806675 187.72891045 72.70291083 187.05450059 72.00729565 186.35965407 C61.05163802 175.4166708 50.08572673 164.48402197 39.11562307 153.55552256 C27.8374614 142.31978236 16.56874839 131.07463495 5.3091644 119.82027721 C-1.00696065 113.50756348 -7.32717901 107.19906995 -13.65806198 100.90115356 C-19.04404151 95.5431769 -24.42144069 90.17677291 -29.78783886 84.79918122 C-32.52433992 82.05749652 -35.26470554 79.31999692 -38.01616669 76.59331894 C-41.00130572 73.63484476 -43.96663967 70.65727 -46.93051147 67.67749023 C-47.79917512 66.82270867 -48.66783877 65.96792711 -49.56282556 65.08724308 C-56.46927066 58.0890725 -60.57334326 51.63588779 -60.5625 41.5625 C-60.17167411 29.32476444 -54.27978242 22.47174028 -46 14 C-45.09378906 13.04351562 -44.18757813 12.08703125 -43.25390625 11.1015625 C-31.03098602 -1.64817112 -17.03409337 -9.24707926 0 0 Z " fill="#000000" transform="translate(60,109)"/>
</svg>
