<?xml version="1.0" encoding="UTF-8"?>
<svg version="1.1" xmlns="http://www.w3.org/2000/svg" width="653" height="578">
<path d="M0 0 C5.51387172 4.85170192 10.49118511 10.20444675 15 16 C15.825 15.49210937 16.65 14.98421875 17.5 14.4609375 C37.0496647 2.6967152 59.90992808 -4.90266397 82.8125 0.3125 C86.29391223 1.22006815 88.92338046 1.93243219 91 5 C91.08984375 6.953125 91.08984375 6.953125 90 9 C87.84823392 10.44036586 85.86019848 11.60483691 83.5625 12.75 C82.6643457 13.22373047 82.6643457 13.22373047 81.74804688 13.70703125 C77.31596659 16 77.31596659 16 75 16 C75 16.66 75 17.32 75 18 C75.66 18.20625 76.32 18.4125 77 18.625 C91.67688549 25.35190585 103.28830041 40.30024348 114 52 C127.07834207 66.53717622 127.07834207 66.53717622 142.125 78.9375 C143.07375 79.618125 144.0225 80.29875 145 81 C145 81.66 145 82.32 145 83 C145.69222656 83.25007813 146.38445312 83.50015625 147.09765625 83.7578125 C150.42639668 85.18249549 153.35037269 86.98346535 156.4375 88.875 C163.35525473 92.97533517 170.13292977 95.22162014 178 97 C178.77859375 97.18820313 179.5571875 97.37640625 180.359375 97.5703125 C184.87904735 98.30576214 189.45385826 98.36099264 194.02539062 98.51757812 C199.78414034 98.78414034 199.78414034 98.78414034 202 101 C201.75276208 107.05732904 200.18987499 111.50416946 197.375 116.8125 C197.0130957 117.50899658 196.65119141 118.20549316 196.27832031 118.9230957 C183.41789689 143.34493835 165.7306724 159.20437679 139.6171875 168.16015625 C111.65200323 175.54653785 81.90849237 167.41370766 57.49365234 153.41186523 C51.91381294 150.08865115 46.88584469 146.27950784 42 142 C41.28328125 141.40316406 40.5665625 140.80632812 39.828125 140.19140625 C35.49370121 136.53321775 31.25871625 132.67823279 28 128 C28 127.34 28 126.68 28 126 C27.34386719 126.39574219 26.68773437 126.79148438 26.01171875 127.19921875 C25.01785156 127.79347656 24.02398437 128.38773438 23 129 C22.40268066 129.35916504 21.80536133 129.71833008 21.18994141 130.08837891 C8.32133097 137.7537738 -4.36701167 142.6595557 -18.77368164 146.57836914 C-19.75510635 146.8454921 -20.73653107 147.11261505 -21.74769592 147.38783264 C-22.86258644 147.69085548 -22.86258644 147.69085548 -24 148 C-24.03425331 148.96719719 -24.03425331 148.96719719 -24.06919861 149.95393372 C-24.30733179 156.65349005 -24.55163771 163.3528009 -24.79956055 170.05200195 C-24.89132104 172.5535717 -24.98149727 175.05520007 -25.07006836 177.55688477 C-25.19751071 181.14876564 -25.33061341 184.74039845 -25.46484375 188.33203125 C-25.52272316 190.01496025 -25.52272316 190.01496025 -25.58177185 191.73188782 C-25.64172081 193.29316658 -25.64172081 193.29316658 -25.70288086 194.88598633 C-25.73619003 195.80309891 -25.76949921 196.72021149 -25.80381775 197.66511536 C-26 200 -26 200 -27 203 C-17.46480678 198.29467969 -7.99431205 193.47194877 1.4375 188.5625 C2.97482788 187.76440918 2.97482788 187.76440918 4.54321289 186.95019531 C5.49703857 186.45229492 6.45086426 185.95439453 7.43359375 185.44140625 C8.29009521 184.99482666 9.14659668 184.54824707 10.02905273 184.08813477 C11.94101735 183.15140674 11.94101735 183.15140674 13 182 C13.03845967 180.56554817 13.01174035 179.12923653 12.95703125 177.6953125 C12.4353556 158.51329873 12.4353556 158.51329873 17 150 C17.45052734 149.03513672 17.45052734 149.03513672 17.91015625 148.05078125 C19.56319144 144.98085875 21.06223143 143.97247456 24.25 142.5625 C29.43413402 143.16731564 31.10173597 145.49104337 34.265625 149.4765625 C39.06600795 156.46090346 40.2988327 163.57317345 39 172 C32.46919097 189.64797909 17.91634801 198.53599814 2.41992188 207.58300781 C0.7778064 208.54455323 -0.85877439 209.51560141 -2.49023438 210.49511719 C-4.92013682 211.9536295 -7.36357838 213.38620499 -9.8125 214.8125 C-10.55894775 215.26359131 -11.30539551 215.71468262 -12.07446289 216.17944336 C-12.77821045 216.58042236 -13.48195801 216.98140137 -14.20703125 217.39453125 C-15.12705933 217.93364136 -15.12705933 217.93364136 -16.06567383 218.48364258 C-18.92059105 219.24574657 -20.37881533 218.27741278 -23 217 C-23.94576904 216.57452881 -24.89153809 216.14905762 -25.8659668 215.71069336 C-33.40953012 211.65112295 -33.40953012 211.65112295 -34.92041016 207.42626953 C-35.17697919 204.08081056 -35.04828649 200.910219 -34.8125 197.5625 C-34.74104535 195.56728555 -34.66965197 193.57206868 -34.59936523 191.57681274 C-34.50681863 189.23952751 -34.38642217 186.90470827 -34.26318359 184.56884766 C-33.92770659 177.91759154 -33.76322143 171.26238459 -33.58203125 164.60546875 C-33.43412435 159.4868417 -33.28088449 154.36838997 -33.125 149.25 C-33.06755112 147.34155807 -33.06755112 147.34155807 -33.00894165 145.39456177 C-32.89427139 141.74695414 -32.76577049 138.10010659 -32.6328125 134.453125 C-32.58257683 132.78632942 -32.58257683 132.78632942 -32.53132629 131.08586121 C-32.49150131 130.06398209 -32.45167633 129.04210297 -32.41064453 127.98925781 C-32.37955597 127.09458801 -32.34846741 126.19991821 -32.31643677 125.27813721 C-32 123 -32 123 -30 120 C-27.375 119.8125 -27.375 119.8125 -25 120 C-23.17144572 124.59232335 -22.87485538 127.97358268 -23.375 132.875 C-23.48585938 134.02742187 -23.59671875 135.17984375 -23.7109375 136.3671875 C-23.80632812 137.23601562 -23.90171875 138.10484375 -24 139 C-7.15142168 134.17290731 7.45148166 128.87835787 22 119 C21.55527344 118.03578125 21.11054688 117.0715625 20.65234375 116.078125 C20.08012333 114.80235489 19.50854205 113.52629798 18.9375 112.25 C18.49567383 111.29867187 18.49567383 111.29867187 18.04492188 110.328125 C16.86141926 107.65480145 15.95449685 105.57637321 16.1875 102.625 C17.3097055 100.38058901 18.71267189 99.88541733 21 99 C24.52261498 101.34840999 25.25668299 103.09710149 27.0625 106.875 C27.56910156 107.92429687 28.07570313 108.97359375 28.59765625 110.0546875 C30 113 30 113 30.87109375 115.2578125 C32.46071428 117.71099852 34.2901089 118.01931563 37 119 C38.47606291 120.0520592 39.91394849 121.15939812 41.3125 122.3125 C49.72254601 128.971602 57.82783232 132.6426132 68 136 C67.62053223 135.52618896 67.24106445 135.05237793 66.85009766 134.56420898 C63.02373006 129.6480986 60.02112245 124.69564917 57.375 119.0625 C56.99037598 118.2478125 56.60575195 117.433125 56.20947266 116.59375 C47.32655745 97.02032765 47.32655745 97.02032765 50 89 C53.15633913 91.98610961 55.65665512 95.16091287 58.1875 98.6875 C72.37777073 117.92333055 92.60810794 129.36724382 114 139 C111.09151362 135.99507166 108.24952834 133.3730327 104.8125 131 C96.034741 124.21652455 90.21411079 114.89227106 85 105.25 C84.62617188 104.56566895 84.25234375 103.88133789 83.8671875 103.17626953 C81.31664253 98.25348159 79.96393787 93.45068818 79 88 C82.54319627 89.66918959 84.86522654 91.63690738 87.6875 94.375 C105.49412454 110.78456225 129.4166947 126.36018198 154 129 C152.89205078 128.58041016 152.89205078 128.58041016 151.76171875 128.15234375 C139.73297241 123.39892556 130.27345869 116.98184049 121 108 C120.46592529 107.49654053 119.93185059 106.99308105 119.3815918 106.47436523 C114.78307921 102.04165674 111.01002568 97.26008948 107.3125 92.0625 C106.75755859 91.30259766 106.20261719 90.54269531 105.63085938 89.75976562 C102.22657137 85.01966901 99.47212411 80.28709756 97 75 C100.65733148 75.79087764 102.52013914 77.04462479 105.375 79.5 C126.72385582 96.98424543 152.20754876 109.59163164 180.1875 109.125 C181.23486328 109.11597656 182.28222656 109.10695313 183.36132812 109.09765625 C185.90780514 109.07440075 188.45377031 109.04172569 191 109 C191 108.34 191 107.68 191 107 C189.72125 107.103125 188.4425 107.20625 187.125 107.3125 C158.50488506 107.27184643 134.79513974 85.96275574 115.81225586 67.00268555 C110.53711405 61.67731989 105.39885116 56.24985432 100.71386719 50.3918457 C97.97566042 46.9701887 95.0326917 44.2103577 91.6796875 41.42578125 C89.31664994 39.41994704 87.19132988 37.19132988 85 35 C79.28919129 29.31283853 73.86821395 25.63810457 66.40625 22.51953125 C65.6121875 22.01808594 64.818125 21.51664063 64 21 C63.67 19.35 63.34 17.7 63 16 C67.95 12.04 67.95 12.04 73 8 C58.21679083 7.3006629 45.94832384 10.08934589 32.375 15.9375 C31.61654785 16.26105469 30.8580957 16.58460937 30.07666016 16.91796875 C25.46215503 19.00334026 22.35003144 21.1931461 19 25 C19.41572266 26.12148437 19.41572266 26.12148437 19.83984375 27.265625 C20.20207031 28.25046875 20.56429688 29.2353125 20.9375 30.25 C21.29714844 31.22453125 21.65679687 32.1990625 22.02734375 33.203125 C26.76383344 46.82291063 25.18596172 63.84972444 19.17041016 76.78369141 C11.03000074 93.31600256 -1.65107963 105.48422227 -19 112 C-24.53610847 113.82862385 -30.20624994 114.57827123 -36 115 C-36.65097656 115.05414063 -37.30195313 115.10828125 -37.97265625 115.1640625 C-55.41457687 115.90341174 -71.35573806 109.90065633 -84.46875 98.50390625 C-97.57172514 85.5424756 -104.84376226 69.01171696 -105.4375 50.625 C-105.24685441 40.9522449 -102.73055762 31.90628621 -99 23 C-99.69351563 22.73832031 -100.38703125 22.47664063 -101.1015625 22.20703125 C-104.30221703 20.87414412 -107.3061555 19.30061057 -110.375 17.6875 C-121.73002598 11.86589544 -133.45822692 7.78816528 -146.3125 7.9375 C-147.05306641 7.94201172 -147.79363281 7.94652344 -148.55664062 7.95117188 C-150.37112899 7.96287825 -152.18557534 7.98081102 -154 8 C-153.44570312 8.40992187 -152.89140625 8.81984375 -152.3203125 9.2421875 C-151.23363281 10.05042969 -151.23363281 10.05042969 -150.125 10.875 C-149.04605469 11.67550781 -149.04605469 11.67550781 -147.9453125 12.4921875 C-146 14 -146 14 -144 16 C-143.97265625 18.390625 -143.97265625 18.390625 -145 21 C-147.16011632 22.47813244 -149.11261001 23.60657189 -151.4375 24.75 C-158.21427298 28.35901363 -163.5363784 32.57047276 -169 38 C-170.01140726 38.9859967 -171.02314213 39.97165743 -172.03515625 40.95703125 C-176.92566571 45.75498065 -181.64345617 50.6439128 -186.0859375 55.86328125 C-190.05713365 60.29643287 -194.35497642 64.42461101 -198.58837891 68.60546875 C-202.71266959 72.66722099 -202.71266959 72.66722099 -206.7109375 76.8515625 C-221.46617884 92.57663191 -242.78961549 105.47254945 -264.5859375 107.30078125 C-267.08445173 107.31041562 -269.5150803 107.24630261 -272 107 C-272 107.66 -272 108.32 -272 109 C-253.28740414 109.48392331 -253.28740414 109.48392331 -235 106 C-233.82953125 105.68289062 -232.6590625 105.36578125 -231.453125 105.0390625 C-217.07250492 100.76128311 -203.93323584 93.00842314 -192 84 C-190.91182395 83.18961299 -189.82325616 82.37975184 -188.734375 81.5703125 C-185.81312267 79.39308904 -182.90387743 77.20036073 -180 75 C-179 78 -179 78 -179.93359375 80.09375 C-193.65196562 102.043145 -209.77085967 120.59028656 -235 129 C-213.2048754 125.54045641 -192.90332164 114.98493048 -176 101 C-175.42572266 100.52965332 -174.85144531 100.05930664 -174.25976562 99.57470703 C-167.28164486 94.48054566 -167.28164486 94.48054566 -162 88 C-161.34 88 -160.68 88 -160 88 C-161.78966306 100.90842081 -168.76437581 114.68962767 -178.3984375 123.49609375 C-180.22690648 125.13146043 -180.22690648 125.13146043 -182.25 127.9375 C-185.94195579 132.55557351 -191.17902614 135.67344361 -196 139 C-170.26306454 129.79526073 -145.84595158 112.89969987 -132 89 C-131.34 89.33 -130.68 89.66 -130 90 C-132.03453397 106.59751395 -137.47097213 121.81348586 -148 135 C-135.99987849 131.85954267 -126.82004133 126.50487335 -117 119 C-115.9275 118.278125 -114.855 117.55625 -113.75 116.8125 C-110.02015958 112.99789048 -108.00667042 108.62180747 -105.7109375 103.86328125 C-103.98311474 100.97174226 -103.12846987 100.05876164 -100 99 C-98.4375 100.0625 -98.4375 100.0625 -97 102 C-97 108.61040388 -100.14094562 114.16584105 -103 120 C-102.49726563 120.24234375 -101.99453125 120.4846875 -101.4765625 120.734375 C-99.46781143 121.76092917 -97.49017783 122.8482147 -95.5234375 123.953125 C-83.16121744 130.84726646 -70.57396509 135.17007547 -57 139 C-57.01160156 137.79601562 -57.02320313 136.59203125 -57.03515625 135.3515625 C-57.04453434 133.77604321 -57.05363452 132.20052225 -57.0625 130.625 C-57.07087891 129.8309375 -57.07925781 129.036875 -57.08789062 128.21875 C-57.11328125 122.2265625 -57.11328125 122.2265625 -56 120 C-54.02 120 -52.04 120 -50 120 C-48.56955304 122.86089391 -48.74350608 125.42150278 -48.61108398 128.61767578 C-48.58167725 129.297621 -48.55227051 129.97756622 -48.52197266 130.67811584 C-48.42557861 132.93368567 -48.33575613 135.18946582 -48.24609375 137.4453125 C-48.18061282 139.01514121 -48.11477632 140.58495512 -48.04859924 142.15475464 C-47.91055 145.45169438 -47.77551427 148.74873881 -47.64282227 152.04589844 C-47.47334804 156.25572318 -47.2985105 160.46530193 -47.12164211 164.67482185 C-46.9855011 167.92113356 -46.8512285 171.16752028 -46.7176075 174.41393661 C-46.65374906 175.96476482 -46.58955921 177.51557942 -46.52502251 179.06637955 C-46.43479726 181.24617263 -46.34683177 183.42604548 -46.25952148 185.60595703 C-46.20924301 186.8434671 -46.15896454 188.08097717 -46.10716248 189.35598755 C-45.99290057 193.24141281 -45.98218 197.11316175 -46 201 C-47.75 200.875 -47.75 200.875 -50 200 C-55.53786479 193.35456225 -55.15240217 185.79798811 -55.31640625 177.56640625 C-55.33718735 176.68846909 -55.35796844 175.81053192 -55.37937927 174.9059906 C-55.44431945 172.12490015 -55.50349927 169.34372215 -55.5625 166.5625 C-55.60573814 164.66730896 -55.64935405 162.7721265 -55.69335938 160.87695312 C-55.79994322 156.25138987 -55.90136408 151.62573929 -56 147 C-56.76401123 146.8860791 -57.52802246 146.7721582 -58.31518555 146.65478516 C-64.66715122 145.66020301 -70.72649881 144.45020363 -76.8125 142.375 C-77.56877686 142.11992676 -78.32505371 141.86485352 -79.10424805 141.60205078 C-88.77437349 138.20025506 -98.13590748 133.63947774 -106 127 C-109.16115776 128.36983503 -109.9927092 128.9890638 -112 132 C-112.66 132 -113.32 132 -114 132 C-114.22300781 132.55300781 -114.44601563 133.10601562 -114.67578125 133.67578125 C-120.5319131 143.95424276 -132.93207907 150.5272239 -143 156 C-144.0209375 156.56589844 -145.041875 157.13179687 -146.09375 157.71484375 C-153.76739113 161.76825902 -161.70282269 164.56270417 -170 167 C-171.051875 167.32226562 -172.10375 167.64453125 -173.1875 167.9765625 C-188.70723655 172.04668949 -207.72508452 172.0315247 -223 167 C-223.98009033 166.67733154 -223.98009033 166.67733154 -224.97998047 166.34814453 C-238.35905349 161.78730802 -251.52871935 154.48315611 -260.34008789 143.13037109 C-261.47239487 141.67714111 -262.63498812 140.24713169 -263.82275391 138.83886719 C-268.93737318 132.71453291 -272.81755016 126.4079744 -276.4375 119.3125 C-276.96537109 118.31927734 -277.49324219 117.32605469 -278.03710938 116.30273438 C-280.70708269 111.1444419 -282.68202368 106.82956592 -283 101 C-279.29175422 98.52783615 -277.24030977 98.73864566 -272.8125 98.625 C-259.02660246 97.97427804 -247.55269125 94.3117717 -235.42578125 87.8046875 C-232.64519774 86.33988752 -229.94113185 85.09097434 -227 84 C-227 83.34 -227 82.68 -227 82 C-225.3828125 80.58984375 -225.3828125 80.58984375 -223.125 78.9375 C-214.73849692 72.56635813 -207.26627369 65.35527755 -199.8125 57.9375 C-199.14726318 57.27693604 -198.48202637 56.61637207 -197.79663086 55.93579102 C-193.95696768 52.08372181 -190.3217811 48.11665298 -186.76635742 44.00219727 C-178.35444748 34.46714911 -169.07220987 24.44818352 -158 18 C-157.34 18 -156.68 18 -156 18 C-156 17.34 -156 16.68 -156 16 C-156.71542969 15.72414063 -157.43085938 15.44828125 -158.16796875 15.1640625 C-160.95738855 14.01751478 -163.62290358 12.73772885 -166.3125 11.375 C-167.19550781 10.92898437 -168.07851562 10.48296875 -168.98828125 10.0234375 C-169.65214844 9.68570313 -170.31601563 9.34796875 -171 9 C-171.1171875 6.60546875 -171.1171875 6.60546875 -171 4 C-164.34462285 -1.98983944 -152.73795844 -1.54064126 -144.35546875 -1.31640625 C-126.37539615 -0.34086996 -110.18627759 6.82448295 -95 16 C-94.36384766 15.14728516 -94.36384766 15.14728516 -93.71484375 14.27734375 C-83.50435259 0.83540044 -70.85739653 -9.4926303 -53.76171875 -12.5859375 C-34.04803981 -14.75587516 -16.14101904 -12.21785469 0 0 Z M-86.3125 16.9375 C-95.78642249 30.47932141 -98.7703575 44.93763251 -96.56640625 61.19921875 C-94.11561168 72.60074134 -88.92219894 83.39242457 -80 91 C-79.175 91.86625 -78.35 92.7325 -77.5 93.625 C-66.16599476 104.39230498 -51.74124783 107.52497631 -36.5078125 107.28515625 C-21.40399096 106.64483659 -8.0695438 99.49877486 2.203125 88.6796875 C14.23205859 74.40106785 17.18364824 60.1035883 16 42 C14.30626302 27.66192952 6.00966206 15.02071885 -5 6 C-30.91799128 -13.66898943 -66.21150266 -8.44513695 -86.3125 16.9375 Z M29 158 C28.34 159.32 27.68 160.64 27 162 C28.98 162.99 28.98 162.99 31 164 C31.66 162.68 32.32 161.36 33 160 C31.68 159.34 30.36 158.68 29 158 Z " fill="#333333" transform="translate(363,75)"/>
<path d="M0 0 C7.37202771 6.83261104 9.35566865 15.81129949 10.01953125 25.53125 C9.99402735 30.06074327 9.51723691 34.50345727 9 39 C9.5762915 39.29543701 10.15258301 39.59087402 10.74633789 39.89526367 C95.86760294 83.64338106 95.86760294 83.64338106 105 109 C106.49293586 116.97055014 103.37302055 122.96771534 99.1875 129.625 C96.50245398 133.54623057 93.75932033 136.1205206 90 139 C89.113125 139.886875 88.22625 140.77375 87.3125 141.6875 C85 144 85 144 82 146 C76.74438679 145.95324188 73.08014228 142.39159675 69.125 139.3125 C68.44308594 138.79494141 67.76117188 138.27738281 67.05859375 137.74414062 C52.9322337 126.94083861 52.9322337 126.94083861 51.375 118.6875 C50.62033687 111.84257302 50.92490616 104.87525808 51 98 C43.08717065 104.13738285 43.08717065 104.13738285 39 113 C39.59793561 120.10048542 43.94148827 125.33270411 49 130 C52.25198681 132.64879571 55.62024284 135.11501757 59.02294922 137.56591797 C63.1291286 140.54439385 67.18635091 143.58892318 71.25 146.625 C72.08942139 147.24640869 72.92884277 147.86781738 73.79370117 148.50805664 C79.08029739 152.45068262 84.09651997 156.59203383 89 161 C89.95652466 161.8348291 89.95652466 161.8348291 90.93237305 162.68652344 C97.05231386 168.11352417 101.18148217 175.14735856 102.546875 183.2421875 C102.98794171 193.46023303 99.6769483 202.29957787 93 210 C89.39190891 213.83133418 85.53149137 217.10972411 81.375 220.3125 C80.80265625 220.76689453 80.2303125 221.22128906 79.640625 221.68945312 C75.35931626 225 75.35931626 225 72 225 C72 224.34 72 223.68 72 223 C71.44441406 222.75894531 70.88882813 222.51789063 70.31640625 222.26953125 C67.49551475 220.72351146 65.33099364 218.83550711 62.9375 216.6875 C62.08027344 215.92824219 61.22304688 215.16898438 60.33984375 214.38671875 C55.51863071 209.46892048 53.98290132 204.94955236 53.68359375 198.21875 C53.6206311 196.83937256 53.6206311 196.83937256 53.55639648 195.43212891 C53.51716064 194.46452637 53.4779248 193.49692383 53.4375 192.5 C53.3950415 191.51563965 53.35258301 190.5312793 53.30883789 189.51708984 C53.02852002 182.67327293 52.86994168 175.84973833 53 169 C45.86901209 174.6944054 40.76399003 179.99722119 39.5625 189.4375 C39.77932183 201.25428976 49.38589682 210.56638406 57.30859375 218.234375 C65.0557808 225.4091098 73.47087911 231.8289088 81.89453125 238.18359375 C82.71308594 238.80363281 83.53164063 239.42367187 84.375 240.0625 C85.43847656 240.85333984 85.43847656 240.85333984 86.5234375 241.66015625 C87.01070313 242.10230469 87.49796875 242.54445313 88 243 C88 243.66 88 244.32 88 245 C81.40443786 244.22692966 76.66487774 241.24694212 71 238 C70.08915611 247.26182844 69.70265438 256.51113457 69.3998127 265.8075428 C69.3146465 268.40124871 69.22466883 270.99474764 69.13328552 273.58824158 C68.8740995 280.95206109 68.61904772 288.31599266 68.37768555 295.68041992 C68.22897831 300.2073367 68.07115469 304.73385702 67.90736198 309.260252 C67.84691586 310.979754 67.78993374 312.69938141 67.73648262 314.41911507 C67.66179433 316.81243457 67.57553263 319.20507502 67.48657227 321.59790039 C67.46728165 322.30697037 67.44799103 323.01604034 67.42811584 323.74659729 C67.28144707 327.34610284 67.05314225 328.92028662 65 332 C60.125 331.125 60.125 331.125 59 330 C57.77391786 319.34246219 57.64764991 308.50419191 57.24609375 297.7890625 C57.18046245 296.0827051 57.1146272 294.37635553 57.04859924 292.67001343 C56.87725925 288.22822501 56.70864759 283.78633729 56.54064941 279.34442139 C56.36797501 274.79204966 56.19265766 270.23977975 56.01757812 265.6875 C55.67583263 256.79176309 55.33697607 247.89591877 55 239 C51.04384925 239 47.36106866 241.93460531 43.9453125 243.78515625 C41 245 41 245 38.6171875 244.68359375 C38.08351563 244.45800781 37.54984375 244.23242188 37 244 C40.45176733 240.33903465 44.28363952 237.32151086 48.25 234.25 C48.8996875 233.74339844 49.549375 233.23679687 50.21875 232.71484375 C51.81060785 231.47413101 53.4050455 230.23672942 55 229 C54.40574219 228.52691406 53.81148438 228.05382812 53.19921875 227.56640625 C51.43762973 226.16097053 49.68016223 224.75036064 47.92578125 223.3359375 C46.02468111 221.81810321 44.10607524 220.32185019 42.16796875 218.8515625 C33.80569103 212.37225921 25.02677854 203.86195876 23 193 C21.87725116 182.65365629 24.11219112 175.71687443 30.1875 167.4375 C33.90530897 162.90417164 37.94941896 158.05176452 43 155 C46.91276047 155.15796859 49.15123024 156.55766438 52.125 159 C52.89328125 159.62519531 53.6615625 160.25039063 54.453125 160.89453125 C55.29359375 161.58933594 56.1340625 162.28414062 57 163 C57.96421875 163.76699219 58.9284375 164.53398437 59.921875 165.32421875 C69.08144548 172.6542983 69.08144548 172.6542983 71 176 C71.32532355 178.96630417 71.48831358 181.73419103 71.51171875 184.703125 C71.52966995 185.54091492 71.54762115 186.37870483 71.56611633 187.24188232 C71.62019056 189.91120407 71.65410532 192.58034731 71.6875 195.25 C71.72067568 197.06252482 71.75516557 198.8750261 71.79101562 200.6875 C71.87591523 205.12487114 71.94273997 209.56218961 72 214 C73.2761014 212.59865337 74.54727121 211.19281509 75.81640625 209.78515625 C76.52482666 209.00277588 77.23324707 208.22039551 77.96313477 207.41430664 C82.95601772 201.49621728 85.87446241 195.78333029 86 188 C84.54114174 177.9703495 77.12334088 171.7173957 69.39331055 165.93994141 C67.60030307 164.62000098 65.80016652 163.31015525 64 162 C22.77585702 131.60689283 22.77585702 131.60689283 20.0625 115.4375 C19.51520807 107.74871588 23.49496097 100.98741691 28 95 C35.90948993 86.0637203 35.90948993 86.0637203 41 84 C50.82268586 84.96334572 63.93222982 94.4200936 71 101 C74.96764709 106.57233991 74.55175291 112.78932694 74.6875 119.375 C74.72166016 120.49261719 74.75582031 121.61023438 74.79101562 122.76171875 C74.87316073 125.50771222 74.94242128 128.25339982 75 131 C76.29308381 129.73062869 77.58280487 128.45783118 78.87109375 127.18359375 C79.58966553 126.47517334 80.3082373 125.76675293 81.04858398 125.03686523 C84.05162194 121.90232931 85.78977485 119.29531543 86.19140625 114.91015625 C86.03046736 109.37196495 84.21383502 106.01011498 80.38671875 102.08984375 C70.28004502 93.24030128 58.62265957 86.62104651 47 80 C45.24718136 78.99516569 43.49458515 77.98994332 41.7421875 76.984375 C31.90121914 71.33798019 31.90121914 71.33798019 22.01171875 65.77734375 C6.72150969 57.2525854 -9.77034344 47.69671955 -16.3125 30.5625 C-18.23879393 20.5807951 -16.11273948 14.25274788 -11 5.625 C-7.90796679 1.56670641 -5.34999215 -1.17438852 0 0 Z M-9 15 C-9.33 16.65 -9.66 18.3 -10 20 C-9.01 20.33 -8.02 20.66 -7 21 C-6.34 20.67 -5.68 20.34 -5 20 C-5.33 18.35 -5.66 16.7 -6 15 C-6.99 15 -7.98 15 -9 15 Z " fill="#323232" transform="translate(260,218)"/>
<path d="M0 0 C3.65733148 0.79087764 5.52013914 2.04462479 8.375 4.5 C29.72385582 21.98424543 55.20754876 34.59163164 83.1875 34.125 C84.23486328 34.11597656 85.28222656 34.10695312 86.36132812 34.09765625 C88.90780514 34.07440075 91.45377031 34.04172569 94 34 C93.0236655 38.65931516 90.92573067 39.99630858 87.1015625 42.671875 C81.07661606 46.47946197 74.94783095 46.63250562 68 46 C65.69518464 45.46116091 63.57912697 44.75640183 61.37109375 43.90625 C58.94432598 42.94421088 58.94432598 42.94421088 56.16015625 42.15625 C48.72004272 39.93474892 42.10459327 36.87886785 36 32 C36 31.34 36 30.68 36 30 C35.45859375 29.92910156 34.9171875 29.85820312 34.359375 29.78515625 C31.03867463 28.68008874 28.91255435 26.68799237 26.25 24.4375 C25.26515625 23.61121094 24.2803125 22.78492188 23.265625 21.93359375 C22.51796875 21.29550781 21.7703125 20.65742188 21 20 C33.14589015 36.14550531 52.12229034 47.85607653 72 51 C76.33404602 51.50041696 80.63999069 51.85068461 85 52 C85 54 85 54 83.75 55.3671875 C74.46465781 63.36750466 66.22263633 65.74281215 54 65 C35.69947835 62.03927866 19.17846579 53.37969607 5.484375 41.16015625 C3.42292343 38.89064178 3.42292343 38.89064178 2 39 C7.85667842 45.23863571 13.84395365 50.32688488 21 55 C21.83015625 55.58652344 22.6603125 56.17304688 23.515625 56.77734375 C31.19024871 62.02779739 39.26792785 65.01343101 48 68 C48.91652344 68.3196875 49.83304687 68.639375 50.77734375 68.96875 C55.14477443 70.46188869 59.5518947 71.769673 64 73 C64 73.66 64 74.32 64 75 C50.97269112 81.27418185 39.09666062 84.85179985 24.71459961 80.25732422 C7.28435415 74.12361788 -7.36037323 64.08374843 -22 53 C-10.99970562 67.79349933 8.63691542 79.02922343 25 87 C25 87.33 25 87.66 25 88 C-2.65504415 89.37321599 -30.36194021 79.67076272 -51 61 C-56.2804287 56.14694413 -61.04560013 51.00649374 -65 45 C-65 44.67 -65 44.34 -65 44 C-61.99854031 43.73191866 -60.41800598 43.73959053 -57.82421875 45.35546875 C-56.76654297 46.26232422 -56.76654297 46.26232422 -55.6875 47.1875 C-47.32553518 54.00044511 -39.22000951 57.6268227 -29 61 C-29.37946777 60.52618896 -29.75893555 60.05237793 -30.14990234 59.56420898 C-33.97626994 54.6480986 -36.97887755 49.69564917 -39.625 44.0625 C-40.00962402 43.2478125 -40.39424805 42.433125 -40.79052734 41.59375 C-49.67344255 22.02032765 -49.67344255 22.02032765 -47 14 C-43.84366087 16.98610961 -41.34334488 20.16091287 -38.8125 23.6875 C-24.62222927 42.92333055 -4.39189206 54.36724382 17 64 C14.09151362 60.99507166 11.24952834 58.3730327 7.8125 56 C-0.965259 49.21652455 -6.78588921 39.89227106 -12 30.25 C-12.37382812 29.56566895 -12.74765625 28.88133789 -13.1328125 28.17626953 C-15.68335747 23.25348159 -17.03606213 18.45068818 -18 13 C-14.45680373 14.66918959 -12.13477346 16.63690738 -9.3125 19.375 C8.49412454 35.78456225 32.4166947 51.36018198 57 54 C56.26136719 53.72027344 55.52273438 53.44054687 54.76171875 53.15234375 C42.73297241 48.39892556 33.27345869 41.98184049 24 33 C23.46592529 32.49654053 22.93185059 31.99308105 22.3815918 31.47436523 C17.78307921 27.04165674 14.01002568 22.26008948 10.3125 17.0625 C9.75755859 16.30259766 9.20261719 15.54269531 8.63085938 14.75976562 C5.22657137 10.01966901 2.47212411 5.28709756 0 0 Z " fill="#BFBFBF" transform="translate(460,150)"/>
<path d="M0 0 C1 3 1 3 0.06640625 5.09375 C-13.65196562 27.043145 -29.77085967 45.59028656 -55 54 C-33.2048754 50.54045641 -12.90332164 39.98493048 4 26 C4.86141602 25.29447998 4.86141602 25.29447998 5.74023438 24.57470703 C12.71835514 19.48054566 12.71835514 19.48054566 18 13 C18.66 13 19.32 13 20 13 C18.21033694 25.90842081 11.23562419 39.68962767 1.6015625 48.49609375 C-0.22690648 50.13146043 -0.22690648 50.13146043 -2.25 52.9375 C-5.94195579 57.55557351 -11.17902614 60.67344361 -16 64 C9.73693546 54.79526073 34.15404842 37.89969987 48 14 C48.99 14.495 48.99 14.495 50 15 C47.96546603 31.59751395 42.52902787 46.81348586 32 60 C43.01527046 57.11728028 51.609859 52.6283765 60.5546875 45.57421875 C63 44 63 44 67 44 C60.0171586 60.66359879 38.74245251 72.98741235 23 79.6875 C8.10908889 85.70715762 -6.92982536 89.02285411 -23 88 C-20.43629893 85.04597767 -17.52357379 83.57869644 -14.0625 81.8125 C0.84350985 73.92887701 18.17794271 63.02248694 28 49 C27.33097656 49.59425781 26.66195312 50.18851563 25.97265625 50.80078125 C6.6857172 67.4470924 -17.59018891 83.77758344 -44 82 C-47.18743177 81.33919097 -50.03027991 80.3198756 -53 79 C-53.75667969 78.67515625 -54.51335937 78.3503125 -55.29296875 78.015625 C-59.33384853 76.1561051 -59.33384853 76.1561051 -61 75 C-61.33 74.01 -61.66 73.02 -62 72 C-61.33097656 71.85304688 -60.66195312 71.70609375 -59.97265625 71.5546875 C-40.24165432 66.94637296 -22.33329432 59.52720917 -7 46 C-9.30312779 47.09124388 -11.44462274 48.27755641 -13.609375 49.62890625 C-28.61684183 58.86857799 -46.98881848 68.04708285 -65 65 C-70.06705458 63.65476427 -74.56884561 62.12387957 -78 58 C-78 57.34 -78 56.68 -78 56 C-78.66 56 -79.32 56 -80 56 C-80 54.68 -80 53.36 -80 52 C-79.41476563 51.99742187 -78.82953125 51.99484375 -78.2265625 51.9921875 C-57.70517226 51.06780055 -40.10026795 40.12979357 -25 27 C-23.16303312 24.82909604 -23.16303312 24.82909604 -22 23 C-22.69222656 23.54527344 -23.38445312 24.09054688 -24.09765625 24.65234375 C-38.6063467 35.83493125 -52.45708252 45.19712234 -71.3125 45.5 C-72.16094482 45.51877197 -73.00938965 45.53754395 -73.88354492 45.55688477 C-80.65452663 45.4868884 -84.56678501 43.6579729 -89.9375 39.5 C-91 38 -91 38 -91 34 C-90.40687012 34.01571045 -89.81374023 34.0314209 -89.20263672 34.04760742 C-77.36784126 34.31902667 -66.43565818 34.36101782 -55 31 C-53.82824219 30.68289062 -52.65648437 30.36578125 -51.44921875 30.0390625 C-37.07034992 25.75728741 -23.93311796 18.00833415 -12 9 C-10.91182395 8.18961299 -9.82325616 7.37975184 -8.734375 6.5703125 C-5.81312267 4.39308904 -2.90387743 2.20036073 0 0 Z " fill="#BFBFBF" transform="translate(183,150)"/>
<path d="M0 0 C1.92289955 2.88434932 3.04927271 5.4738827 4.3125 8.6875 C6.1539617 13.19308825 8.17081087 17.24719791 10.88671875 21.28125 C12 23 12 23 12.89453125 25.09375 C14.28380044 27.48938026 15.49210406 27.90422828 18 29 C19.40571941 29.96492021 20.80108675 30.94504024 22.1875 31.9375 C32.1794694 38.67550568 44.2177411 40.43915726 56.02734375 38.50390625 C68.4992578 35.66281386 78.53025691 30.51619194 85.6875 19.75 C88.34680159 15.3794438 90.42694961 10.9947583 92.17578125 6.19140625 C92.98485732 4.04026088 93.93781003 2.03625064 95 0 C95.33 0 95.66 0 96 0 C96.95964869 11.80901023 93.57707428 22.8749213 86 32 C76.2413272 43.25077216 65.90233727 49.27290793 51 51 C38.78291698 51.47881679 26.36356177 47.99477036 17.01953125 39.93359375 C6.00948063 29.39205593 -0.31617913 18.56210521 -1 3 C-0.67 2.01 -0.34 1.02 0 0 Z " fill="#303030" transform="translate(275,123)"/>
<path d="M0 0 C1.98 0 3.96 0 6 0 C7.43044696 2.86089391 7.25649392 5.42150278 7.38891602 8.61767578 C7.41832275 9.297621 7.44772949 9.97756622 7.47802734 10.67811584 C7.57442139 12.93368567 7.66424387 15.18946582 7.75390625 17.4453125 C7.81938718 19.01514121 7.88522368 20.58495512 7.95140076 22.15475464 C8.08945 25.45169438 8.22448573 28.74873881 8.35717773 32.04589844 C8.52665196 36.25572318 8.7014895 40.46530193 8.87835789 44.67482185 C9.0144989 47.92113356 9.1487715 51.16752028 9.2823925 54.41393661 C9.34625094 55.96476482 9.41044079 57.51557942 9.47497749 59.06637955 C9.56520274 61.24617263 9.65316823 63.42604548 9.74047852 65.60595703 C9.79075699 66.8434671 9.84103546 68.08097717 9.89283752 69.35598755 C10.00709943 73.24141281 10.01782 77.11316175 10 81 C8.25 80.875 8.25 80.875 6 80 C0.78934195 73.74721034 0.90420039 67.16369948 0.68359375 59.31640625 C0.66281265 58.61603745 0.64203156 57.91566864 0.62062073 57.19407654 C0.55587535 54.98363894 0.49659392 52.77309515 0.4375 50.5625 C0.39424319 49.05272393 0.35062677 47.54295812 0.30664062 46.03320312 C0.20027252 42.35557804 0.09879998 38.67783709 0 35 C0.66 34.67 1.32 34.34 2 34 C2.0501123 35.05388916 2.10022461 36.10777832 2.15185547 37.19360352 C2.34114165 41.12828706 2.54129702 45.06235726 2.74462891 48.99633789 C2.83089882 50.69443343 2.91427658 52.39267861 2.99462891 54.09106445 C3.11108316 56.54163578 3.23815703 58.99146871 3.3671875 61.44140625 C3.41732498 62.56839684 3.41732498 62.56839684 3.46847534 63.71815491 C3.72403747 71.41236182 3.72403747 71.41236182 7 78 C7.15663528 60.63999162 6.71182695 43.34421293 6 26 C5.90321461 23.55600662 5.80685848 21.11199621 5.7109375 18.66796875 C5.47888008 12.77844126 5.24162576 6.88914232 5 1 C4.01 1.33 3.02 1.66 2 2 C1.90912109 3.82337891 1.90912109 3.82337891 1.81640625 5.68359375 C1.73201668 7.26824228 1.6473679 8.85287702 1.5625 10.4375 C1.52318359 11.23994141 1.48386719 12.04238281 1.44335938 12.86914062 C1.11328125 18.88671875 1.11328125 18.88671875 0 20 C-6.12286306 19.8923285 -11.86717204 18.39886631 -17.625 16.4375 C-18.39191162 16.17936523 -19.15882324 15.92123047 -19.94897461 15.65527344 C-40.2324893 8.5350214 -40.2324893 8.5350214 -43 3 C-38.56080755 4.3551219 -34.65726717 6.13730566 -30.5625 8.3125 C-21.13501884 13.18211404 -11.18832477 16.12436811 -1 19 C-1.01160156 17.79601562 -1.02320313 16.59203125 -1.03515625 15.3515625 C-1.04453434 13.77604321 -1.05363452 12.20052225 -1.0625 10.625 C-1.07087891 9.8309375 -1.07925781 9.036875 -1.08789062 8.21875 C-1.11328125 2.2265625 -1.11328125 2.2265625 0 0 Z " fill="#1E1E1E" transform="translate(307,195)"/>
<path d="M0 0 C0.99 0.495 0.99 0.495 2 1 C1.46109131 1.53367187 0.92218262 2.06734375 0.36694336 2.6171875 C-2.11226236 5.07539426 -4.58739599 7.53766366 -7.0625 10 C-7.91005859 10.83917969 -8.75761719 11.67835937 -9.63085938 12.54296875 C-14.06354627 16.95854102 -18.33189778 21.43511737 -22.40698242 26.18212891 C-24.85606743 28.97690085 -27.47599063 31.5836837 -30.125 34.1875 C-30.62386719 34.68185547 -31.12273437 35.17621094 -31.63671875 35.68554688 C-32.61981168 36.65965593 -33.60367565 37.63298757 -34.58837891 38.60546875 C-38.71266959 42.66722099 -38.71266959 42.66722099 -42.7109375 46.8515625 C-57.51443355 62.62805829 -78.92783628 75.57276245 -100.80859375 77.30078125 C-103.56301101 77.31051417 -106.25743642 77.2419909 -109 77 C-109 76.67 -109 76.34 -109 76 C-107.83984375 75.82984375 -106.6796875 75.6596875 -105.484375 75.484375 C-73.62382561 70.628001 -53.53581639 54.75779086 -31.3125 32.4375 C-30.41466797 31.54353516 -29.51683594 30.64957031 -28.59179688 29.72851562 C-24.11269253 25.24284849 -19.792342 20.696614 -15.66430664 15.88696289 C-12.77688071 12.61324791 -9.6691903 9.56395276 -6.5625 6.5 C-5.92634766 5.86835937 -5.29019531 5.23671875 -4.63476562 4.5859375 C-3.09217194 3.05494226 -1.54642686 1.52712333 0 0 Z " fill="#1D1D1D" transform="translate(199,105)"/>
<path d="M0 0 C21.76533463 -0.81004681 40.80966518 3.49414481 59 16 C58.67 17.32 58.34 18.64 58 20 C58 19.01 58 18.02 58 17 C57.30648437 16.73832031 56.61296875 16.47664063 55.8984375 16.20703125 C52.69778297 14.87414412 49.6938445 13.30061057 46.625 11.6875 C35.26997402 5.86589544 23.54177308 1.78816528 10.6875 1.9375 C9.57665039 1.94426758 9.57665039 1.94426758 8.44335938 1.95117188 C6.62887101 1.96287825 4.81442466 1.98081102 3 2 C3.55429688 2.40992187 4.10859375 2.81984375 4.6796875 3.2421875 C5.40414062 3.78101562 6.12859375 4.31984375 6.875 4.875 C7.59429687 5.40867187 8.31359375 5.94234375 9.0546875 6.4921875 C11 8 11 8 13 10 C13.0546875 12.35546875 13.0546875 12.35546875 12 15 C9.69278848 16.69057826 7.62729167 17.99642444 5.125 19.3125 C4.48691406 19.67150391 3.84882813 20.03050781 3.19140625 20.40039062 C0.27863629 21.99663721 -1.63211413 23 -5 23 C-0.22486164 18.71884147 5.36156231 15.96240159 11 13 C9.18450495 8.3814604 6.01565739 6.91309595 1.8984375 4.46484375 C1.27195313 3.98144531 0.64546875 3.49804688 0 3 C0 2.01 0 1.02 0 0 Z " fill="#1A1A1A" transform="translate(206,81)"/>
<path d="M0 0 C5.80153088 1.56594167 10.51127307 4.47628468 15.5625 7.625 C16.39974609 8.12128906 17.23699219 8.61757813 18.09960938 9.12890625 C23.5451669 12.51782804 27.79493904 15.81241448 30 22 C30.6795782 26.17641973 30.78975388 30.27427669 30.8125 34.5 C30.83763672 35.60859375 30.86277344 36.7171875 30.88867188 37.859375 C30.94716108 40.57327425 30.98372111 43.28557471 31 46 C32.31554021 44.71142987 33.62734097 43.41904109 34.9375 42.125 C35.66839844 41.40570313 36.39929688 40.68640625 37.15234375 39.9453125 C39.05667999 38.12972808 39.05667999 38.12972808 40 36 C40.66 36 41.32 36 42 36 C40.43873668 39.83219177 37.97133075 42.17361222 35 45 C34.2265625 45.928125 34.2265625 45.928125 33.4375 46.875 C32.963125 47.24625 32.48875 47.6175 32 48 C29.91015625 47.5703125 29.91015625 47.5703125 28 47 C28.01047363 46.40050537 28.02094727 45.80101074 28.03173828 45.18334961 C28.07362837 42.4347767 28.09943003 39.68627126 28.125 36.9375 C28.14175781 35.99455078 28.15851563 35.05160156 28.17578125 34.08007812 C28.21384821 28.61746954 27.81136192 24.1590271 26 19 C25.67 18.01 25.34 17.02 25 16 C23.35317863 15.28571603 21.68243788 14.6257995 20 14 C18.40738106 12.96145185 16.84533103 11.87492062 15.3125 10.75 C10.95612599 7.61865147 6.48451658 4.83878339 1.8359375 2.1640625 C1.23007812 1.77992188 0.62421875 1.39578125 0 1 C0 0.67 0 0.34 0 0 Z " fill="#131313" transform="translate(304,303)"/>
<path d="M0 0 C0.886875 0.78375 1.77375 1.5675 2.6875 2.375 C9.85164819 8.50148387 17.45009349 14.10671098 25.0078125 19.734375 C25.88348877 20.38736572 26.75916504 21.04035645 27.66137695 21.71313477 C29.38672029 22.99804604 31.1143105 24.27994758 32.84448242 25.55834961 C56.03145167 42.8177883 56.03145167 42.8177883 60 54 C59.625 56.26953125 59.625 56.26953125 59 58 C58.74347656 57.39414062 58.48695313 56.78828125 58.22265625 56.1640625 C54.54916498 48.12443514 49.43504127 40.95669418 42 36 C42 35.34 42 34.68 42 34 C41.42435303 33.72994141 40.84870605 33.45988281 40.25561523 33.18164062 C37.96334676 31.9807986 35.98909053 30.63244685 33.91015625 29.09375 C33.1318042 28.51947266 32.35345215 27.94519531 31.55151367 27.35351562 C30.73013916 26.74185547 29.90876465 26.13019531 29.0625 25.5 C27.79466675 24.55930664 27.79466675 24.55930664 26.5012207 23.59960938 C23.99727699 21.73775737 21.49782445 19.87005084 19 18 C18.31969727 17.49210937 17.63939453 16.98421875 16.93847656 16.4609375 C4.5180161 7.16344697 4.5180161 7.16344697 0 2 C0 1.34 0 0.68 0 0 Z " fill="#191919" transform="translate(301,341)"/>
<path d="M0 0 C4.3273228 1.46648162 7.68894115 3.77052838 11.25 6.5625 C11.81920166 7.00867676 12.38840332 7.45485352 12.97485352 7.91455078 C22.26898563 15.31055782 31.18500583 23.24440634 33.46875 35.51953125 C33.82652165 44.27002945 29.01550626 51.216626 24 58 C21.625 60.5625 21.625 60.5625 20 62 C19.34 61.67 18.68 61.34 18 61 C18.61488281 60.28714844 19.22976563 59.57429688 19.86328125 58.83984375 C26.80944801 50.60858075 30.79083118 45.13938164 30.47265625 34.05859375 C28.55387475 21.64201596 16.89724381 13.53783745 7.5 6.5625 C6.76861816 6.02963379 6.03723633 5.49676758 5.28369141 4.94775391 C4.60226074 4.45065918 3.92083008 3.95356445 3.21875 3.44140625 C2.59935547 2.99482666 1.97996094 2.54824707 1.34179688 2.08813477 C0.89900391 1.72905029 0.45621094 1.36996582 0 1 C0 0.67 0 0.34 0 0 Z " fill="#191919" transform="translate(332,294)"/>
<path d="M0 0 C3.39192363 0.59283621 5.2107757 1.76743189 7.75 4.0625 C8.67039062 4.88427734 8.67039062 4.88427734 9.609375 5.72265625 C10.29773438 6.35494141 10.29773438 6.35494141 11 7 C8 7 8 7 6 6 C12.22059341 15.87738477 18.74542469 24.73321378 27 33 C28.09054687 34.10794922 28.09054687 34.10794922 29.203125 35.23828125 C35.36843062 41.11815606 42.54080876 45.01044679 50 49 C47 50 47 50 44.50390625 48.953125 C36.29733163 44.20137661 29.67312332 38.68935399 23 32 C22.15695312 31.16855469 21.31390625 30.33710938 20.4453125 29.48046875 C12.67769661 21.40264455 3.57838597 10.7351579 0 0 Z " fill="#B7B7B7" transform="translate(460,150)"/>
<path d="M0 0 C0 4.14081994 -1.53787645 4.97106795 -4.4375 7.875 C-12.40129075 15.76056893 -21.80927379 24.18970694 -32 29 C-31.814375 28.38125 -31.62875 27.7625 -31.4375 27.125 C-30.76313824 24.95839822 -30.76313824 24.95839822 -32 23 C-31.20078125 22.52691406 -30.4015625 22.05382812 -29.578125 21.56640625 C-19.02992016 15.2151984 -9.23122791 8.18222474 0 0 Z " fill="#4C4C4C" transform="translate(212,197)"/>
<path d="M0 0 C4.02900207 1.35961024 6.54850067 3.14986919 9.625 6.0625 C12.9079856 9.18248014 12.9079856 9.18248014 17 11 C17.53625 11.5775 18.0725 12.155 18.625 12.75 C24.13797055 17.9728142 30.76017027 20.49522802 38.03125 22.32421875 C40 23 40 23 41 25 C38.23723823 24.47731534 35.6739124 23.89130413 33 23 C33.495 24.485 33.495 24.485 34 26 C25.09389136 23.89065848 18.05798758 17.17283806 11.1875 11.4375 C10.64859131 10.99092041 10.10968262 10.54434082 9.55444336 10.08422852 C5.93474206 7.00689288 2.95581807 3.72072478 0 0 Z " fill="#555555" transform="translate(479,169)"/>
<path d="M0 0 C0.66 0.33 1.32 0.66 2 1 C-2.42681004 5.85869394 -7.2181879 9.81174539 -12.5 13.6875 C-13.4427478 14.3822644 -13.4427478 14.3822644 -14.40454102 15.09106445 C-25.33317441 23 -25.33317441 23 -29 23 C-29.33 22.34 -29.66 21.68 -30 21 C-30.7425 21.350625 -31.485 21.70125 -32.25 22.0625 C-35.21122875 23.0720098 -36.12062561 22.87980884 -39 22 C-38.34257813 21.83886719 -37.68515625 21.67773438 -37.0078125 21.51171875 C-23.3563339 17.60865373 -10.71920224 9.1834101 0 0 Z " fill="#505050" transform="translate(161,172)"/>
<path d="M0 0 C4.26250811 1.4106142 6.96293679 3.46881596 10.25 6.5 C11.55710937 7.69109375 11.55710937 7.69109375 12.890625 8.90625 C16.71567671 12.702968 16.21218711 16.38879674 16.31640625 21.5078125 C16.33718735 22.34843231 16.35796844 23.18905212 16.37937927 24.05514526 C16.44485439 26.74501235 16.5037502 29.43497843 16.5625 32.125 C16.60568716 33.94662489 16.64930152 35.76823971 16.69335938 37.58984375 C16.80053368 42.05979394 16.90180685 46.52984386 17 51 C19.31 49.02 21.62 47.04 24 45 C22.04783565 48.90432869 20.12613393 51.03839944 17 54 C15.515 53.505 15.515 53.505 14 53 C14.02094727 51.88028809 14.04189453 50.76057617 14.06347656 49.60693359 C14.13610426 45.43616623 14.18188211 41.26545432 14.21972656 37.09423828 C14.23979033 35.29205919 14.26704813 33.48994479 14.30175781 31.68798828 C14.35050829 29.09130864 14.37302082 26.49549271 14.390625 23.8984375 C14.41127014 23.0982016 14.43191528 22.2979657 14.45318604 21.47348022 C14.45529576 16.16408284 13.49098665 13.22771567 10 9 C7.46606663 6.67447463 7.46606663 6.67447463 4.75 4.6875 C3.1531154 3.47599073 1.56549911 2.25180177 0 1 C0 0.67 0 0.34 0 0 Z " fill="#1E1E1E" transform="translate(315,381)"/>
<path d="M0 0 C0.66 0.33 1.32 0.66 2 1 C-7.25429969 20.15760221 -20.43533158 45.05267608 -42 53 C-42.99 52.67 -43.98 52.34 -45 52 C-44.11699219 51.46632812 -43.23398437 50.93265625 -42.32421875 50.3828125 C-22.01180124 37.8745498 -10.17158304 21.19079799 0 0 Z " fill="#1B1B1B" transform="translate(562,183)"/>
<path d="M0 0 C0.9075 0.804375 1.815 1.60875 2.75 2.4375 C11.68011266 10.01023554 20.13713428 15.93959718 30.84765625 20.58984375 C34 22 34 22 37 24 C36.01 24 35.02 24 34 24 C34 24.99 34 25.98 34 27 C21.29623371 22.30165915 8.68839862 12.33870897 0 2 C0 1.34 0 0.68 0 0 Z " fill="#515151" transform="translate(460,186)"/>
<path d="M0 0 C0.91330078 0.00902344 1.82660156 0.01804687 2.76757812 0.02734375 C4.99117319 0.05062747 7.21418677 0.0833229 9.4375 0.125 C8.85437967 3.28957436 8.71463928 3.91892207 6 5.9375 C5.154375 6.329375 4.30875 6.72125 3.4375 7.125 C2.7775 6.795 2.1175 6.465 1.4375 6.125 C3.0875 4.805 4.7375 3.485 6.4375 2.125 C-8.34570917 1.4256629 -20.61417616 4.21434589 -34.1875 10.0625 C-35.32517822 10.54783203 -35.32517822 10.54783203 -36.48583984 11.04296875 C-41.10034497 13.12834026 -44.21246856 15.3181461 -47.5625 19.125 C-46.9025 20.775 -46.2425 22.425 -45.5625 24.125 C-46.5525 23.795 -47.5425 23.465 -48.5625 23.125 C-48.8925 20.815 -49.2225 18.505 -49.5625 16.125 C-42.35955085 11.69068443 -35.18946666 7.71687329 -27.25 4.75 C-26.61771484 4.51200684 -25.98542969 4.27401367 -25.33398438 4.02880859 C-16.84736502 0.979342 -9.01210347 -0.171911 0 0 Z " fill="#1A1A1A" transform="translate(429.5625,80.875)"/>
<path d="M0 0 C1.96371945 2.94557917 3.29765337 5.75038726 4.6875 9 C5.14511719 10.051875 5.60273438 11.10375 6.07421875 12.1875 C7 15 7 15 6 18 C4.68 15.36 3.36 12.72 2 10 C5.53779347 23.56154163 11.43919525 34.37143445 23.5 42 C24.66002021 42.67816566 25.82420834 43.34956206 27 44 C25.515 44.495 25.515 44.495 24 45 C13.35339905 38.99422511 5.12829346 28.34265547 1 17 C-1.68398268 5.05194805 -1.68398268 5.05194805 0 0 Z " fill="#1C1C1C" transform="translate(275,123)"/>
<path d="M0 0 C0 3 0 3 -2.625 5.6875 C-13.88637783 14.80602456 -26.50900682 20.16448328 -41 21 C-41.70511719 21.04125 -42.41023438 21.0825 -43.13671875 21.125 C-49.55758553 21.30944142 -55.70827725 20.19234001 -62 19 C-62 18.67 -62 18.34 -62 18 C-60.83766846 18.0314209 -60.83766846 18.0314209 -59.65185547 18.06347656 C-35.65421002 18.62711979 -18.23565102 16.9633963 0 0 Z " fill="#151515" transform="translate(368,169)"/>
<path d="M0 0 C0 3 0 3 -1.58203125 4.6484375 C-14.63555816 14.75291893 -26.88260463 17.11961929 -43 16 C-47.62764313 15.16452867 -51.62510296 14.37489704 -55 11 C-54.41992188 11.13277344 -53.83984375 11.26554688 -53.2421875 11.40234375 C-50.83074346 11.94750519 -48.41611763 12.47597449 -46 13 C-45.05125 13.20625 -44.1025 13.4125 -43.125 13.625 C-29.53905797 15.25531304 -15.89800064 12.77334339 -4.82421875 4.34375 C-3.17523164 2.94260665 -1.58077002 1.47767632 0 0 Z " fill="#1A1A1A" transform="translate(357,148)"/>
<path d="M0 0 C2.8125 2.5 2.8125 2.5 5 5 C4.67 5.66 4.34 6.32 4 7 C3.443125 6.34 2.88625 5.68 2.3125 5 C0.17410708 2.83247848 0.17410708 2.83247848 -2.5 2.4375 C-5.12565102 2.81852978 -5.12565102 2.81852978 -7.0625 4.8125 C-13.91840203 16.09156464 -13.99934215 27.25419381 -12 40 C-13.45264038 40.8638129 -14.9123163 41.71580454 -16.375 42.5625 C-17.18710937 43.03816406 -17.99921875 43.51382813 -18.8359375 44.00390625 C-19.90714844 44.49697266 -19.90714844 44.49697266 -21 45 C-21.66 44.67 -22.32 44.34 -23 44 C-22.42540039 43.75652832 -21.85080078 43.51305664 -21.25878906 43.26220703 C-18.82637557 42.03752867 -16.96005922 40.89940592 -15 39 C-14.0768932 35.58450485 -14.43626103 32.37195912 -14.75 28.875 C-15.2502024 18.06970196 -13.84869382 9.67501217 -7 1 C-4.35955695 -0.32022153 -2.93650531 -0.40974493 0 0 Z " fill="#1F1F1F" transform="translate(391,218)"/>
<path d="M0 0 C0.66 0.33 1.32 0.66 2 1 C-3.1830387 6.15494635 -8.68615794 10.26118056 -14.9375 14 C-15.60015869 14.39759521 -16.26281738 14.79519043 -16.94555664 15.20483398 C-21.72574027 18 -21.72574027 18 -24 18 C-24 17.34 -24 16.68 -24 16 C-24.66 15.34 -25.32 14.68 -26 14 C-25.26136719 13.72027344 -24.52273437 13.44054687 -23.76171875 13.15234375 C-16.24472896 10.18184334 -9.67246425 6.54368492 -3 2 C-2.01 1.34 -1.02 0.68 0 0 Z " fill="#4E4E4E" transform="translate(176,194)"/>
<path d="M0 0 C3.78513993 1.26171331 4.61144641 2.83867907 7 6 C13.47779068 14.12361371 21.49100944 20.13825095 30 26 C29.01 26.495 29.01 26.495 28 27 C18.38419737 20.24197797 9.26925991 13.31956399 2 4 C2 3.34 2 2.68 2 2 C0.9171875 2.6496875 0.9171875 2.6496875 -0.1875 3.3125 C-1.115625 3.869375 -2.04375 4.42625 -3 5 C-3.886875 5.5775 -4.77375 6.155 -5.6875 6.75 C-6.8321875 7.36875 -6.8321875 7.36875 -8 8 C-8.66 7.67 -9.32 7.34 -10 7 C-8.4050992 5.80008401 -6.79873853 4.61538682 -5.1875 3.4375 C-3.84751953 2.44556641 -3.84751953 2.44556641 -2.48046875 1.43359375 C-1.66191406 0.96050781 -0.84335937 0.48742187 0 0 Z " fill="#1A1A1A" transform="translate(389,199)"/>
<path d="M0 0 C0.33 0 0.66 0 1 0 C1.93086969 17.01422927 -2.73148347 32.91192131 -14 46 C-14.66 46 -15.32 46 -16 46 C-14.48228612 42.7617095 -12.62306669 39.89969931 -10.625 36.9375 C-3.28435313 25.33257693 -1.70777162 13.38869339 0 0 Z " fill="#1C1C1C" transform="translate(386,122)"/>
<path d="M0 0 C5.01238871 4.15148225 9.49506905 8.50570877 13.875 13.3125 C15.10173613 14.64166738 16.32959922 15.96979553 17.55859375 17.296875 C18.14753418 17.93302734 18.73647461 18.56917969 19.34326172 19.22460938 C24.9174559 25.1980164 30.71385387 30.78383619 37 36 C33.38087779 36 32.91797846 35.36461051 30.31640625 32.99609375 C29.6114502 32.35526855 28.90649414 31.71444336 28.18017578 31.05419922 C24.70633564 27.78108713 21.30257513 24.4471585 17.9375 21.0625 C17.26912109 20.39798828 16.60074219 19.73347656 15.91210938 19.04882812 C11.95605678 15.08508641 8.18607699 11.01490031 4.54516602 6.75952148 C3.02663162 4.97523314 3.02663162 4.97523314 1.30053711 3.39477539 C0 2 0 2 0 0 Z " fill="#1E1E1E" transform="translate(462,122)"/>
<path d="M0 0 C0.66 0.33 1.32 0.66 2 1 C0.35 2.65 -1.3 4.3 -3 6 C-1.3603125 4.9790625 -1.3603125 4.9790625 0.3125 3.9375 C2.17578125 2.77734375 2.17578125 2.77734375 4 2 C4.99 2.33 5.98 2.66 7 3 C7 6.3 7 9.6 7 13 C6.67 13 6.34 13 6 13 C5.67 10.69 5.34 8.38 5 6 C1.04384925 6 -2.63893134 8.93460531 -6.0546875 10.78515625 C-9 12 -9 12 -11.3828125 11.68359375 C-11.91648437 11.45800781 -12.45015625 11.23242188 -13 11 C-10.24881027 8.14784917 -7.39684775 5.65641299 -4.25 3.25 C-3.45078125 2.63640625 -2.6515625 2.0228125 -1.828125 1.390625 C-1.22484375 0.93171875 -0.6215625 0.4728125 0 0 Z " fill="#242424" transform="translate(310,451)"/>
<path d="M0 0 C0.33 0 0.66 0 1 0 C1.20413361 5.73842251 1.27141454 10.60539047 -1 16 C-1.33 14.68 -1.66 13.36 -2 12 C-2.38671875 12.68707031 -2.7734375 13.37414062 -3.171875 14.08203125 C-3.95304687 15.43361328 -3.95304687 15.43361328 -4.75 16.8125 C-5.26046875 17.70582031 -5.7709375 18.59914062 -6.296875 19.51953125 C-7.98579128 21.97930611 -9.52172836 23.37834834 -12 25 C-10.91457831 21.84240963 -9.52216806 19.20104088 -7.6875 16.4375 C-4.36976205 11.29303134 -2.22516858 5.68128148 0 0 Z " fill="#222222" transform="translate(370,123)"/>
<path d="M0 0 C3.83469403 1.75598613 7.27309309 4.07243914 10.75 6.4375 C11.35199219 6.83259766 11.95398438 7.22769531 12.57421875 7.63476562 C14.10575611 8.67836421 15.56035945 9.83289256 17 11 C17 11.99 17 12.98 17 14 C17.99 15.485 17.99 15.485 19 17 C14.66822166 14.98655485 11.40974782 12.15900503 7.8125 9.0625 C7.17119141 8.52431641 6.52988281 7.98613281 5.86914062 7.43164062 C5.25876953 6.90892578 4.64839844 6.38621094 4.01953125 5.84765625 C3.46370361 5.37336182 2.90787598 4.89906738 2.33520508 4.41040039 C1 3 1 3 0 0 Z " fill="#525252" transform="translate(438,203)"/>
<path d="M0 0 C3.17836482 0.48157043 5.64488771 1.27796884 8.625 2.5625 C11.84861488 4.19593103 11.84861488 4.19593103 15 4 C17.1875 5.375 17.1875 5.375 19 7 C19 7.66 19 8.32 19 9 C14.40191871 8.46105575 11.13215631 7.23428472 7.125 4.9375 C6.15820312 4.38964844 5.19140625 3.84179688 4.1953125 3.27734375 C3.47085937 2.85582031 2.74640625 2.43429687 2 2 C1.67 3.98 1.34 5.96 1 8 C0.34 8 -0.32 8 -1 8 C-0.67 5.36 -0.34 2.72 0 0 Z " fill="#232323" transform="translate(329,454)"/>
<path d="M0 0 C1 3 1 3 -0.0390625 5.3046875 C-2.9903373 10.08778804 -5.75673701 14.25013968 -10 18 C-10.71671875 18.67289062 -11.4334375 19.34578125 -12.171875 20.0390625 C-19.03796517 26.38907399 -19.03796517 26.38907399 -23 27 C-20.15814097 24.06933287 -17.25973358 21.36634378 -14.125 18.75 C-8.07683026 13.50215518 -3.2058431 7.35458124 0 0 Z " fill="#1A1A1A" transform="translate(400,247)"/>
<path d="M0 0 C6.84335338 3.07130892 11.41996715 9.42408885 16.22265625 15 C19.01120286 18.13788102 21.99181238 21.07410323 25 24 C24.67 24.66 24.34 25.32 24 26 C21.30818725 23.337658 18.62237853 20.66933333 15.9375 18 C14.80924805 16.88431641 14.80924805 16.88431641 13.65820312 15.74609375 C8.90989786 11.01834392 4.17455246 6.25231555 0 1 C0 0.67 0 0.34 0 0 Z " fill="#212121" transform="translate(456,107)"/>
<path d="M0 0 C0.33 0 0.66 0 1 0 C1.66 4.62 2.32 9.24 3 14 C4.299375 12.72125 5.59875 11.4425 6.9375 10.125 C7.66839844 9.40570313 8.39929688 8.68640625 9.15234375 7.9453125 C11.05667999 6.12972808 11.05667999 6.12972808 12 4 C12.66 4 13.32 4 14 4 C12.43873668 7.83219177 9.97133075 10.17361222 7 13 C6.484375 13.61875 5.96875 14.2375 5.4375 14.875 C4.7259375 15.431875 4.7259375 15.431875 4 16 C2.68 15.67 1.36 15.34 0 15 C0 10.05 0 5.1 0 0 Z " fill="#1F1F1F" transform="translate(332,335)"/>
<path d="M0 0 C0.66 0.33 1.32 0.66 2 1 C-2.94409802 6.2302516 -8.23424506 10.69856377 -14 15 C-14.33 14.34 -14.66 13.68 -15 13 C-15.66 12.67 -16.32 12.34 -17 12 C-16.19175781 11.46890625 -15.38351563 10.9378125 -14.55078125 10.390625 C-13.48214844 9.68421875 -12.41351563 8.9778125 -11.3125 8.25 C-10.25675781 7.55390625 -9.20101562 6.8578125 -8.11328125 6.140625 C-5.29705372 4.20424772 -2.6367115 2.17198499 0 0 Z " fill="#5C5C5C" transform="translate(161,172)"/>
<path d="M0 0 C3.35885803 1.01783577 5.54376017 2.3917681 8.0625 4.75 C14.00102782 10.07509748 21.63133528 13.13890674 29 16 C28.67 16.66 28.34 17.32 28 18 C17.30618791 14.01278828 8.49397462 8.59987203 0 1 C0 0.67 0 0.34 0 0 Z " fill="#121212" transform="translate(276,170)"/>
<path d="M0 0 C0 3.66748572 -1.18773615 4.62811248 -3.66601562 7.17382812 C-4.16810547 7.67333984 -4.67019531 8.17285156 -5.1875 8.6875 C-5.67025391 9.19861328 -6.15300781 9.70972656 -6.65039062 10.23632812 C-9.03840816 12.63716723 -10.44453946 13.9355878 -13.86328125 14.33203125 C-14.56839844 14.22246094 -15.27351562 14.11289063 -16 14 C-12.04058225 9.77662107 -7.65581029 6.24983886 -3.109375 2.671875 C-1.13248821 1.17080011 -1.13248821 1.17080011 0 0 Z " fill="#6A6A6A" transform="translate(212,197)"/>
<path d="M0 0 C3.99913783 1.35659799 6.54986911 3.12565085 9.625 6 C12.04266466 8.24438494 14.24663477 10.16442318 17 12 C16.34 12 15.68 12 15 12 C14.67 12.66 14.34 13.32 14 14 C11.85088146 12.04516895 9.70564025 10.08636605 7.5625 8.125 C6.95083984 7.56941406 6.33917969 7.01382813 5.70898438 6.44140625 C5.12568359 5.90644531 4.54238281 5.37148437 3.94140625 4.8203125 C3.40201416 4.32805176 2.86262207 3.83579102 2.30688477 3.32861328 C1 2 1 2 0 0 Z " fill="#6E6E6E" transform="translate(479,169)"/>
<path d="M0 0 C3.31938559 3.13666712 6.05462121 6.58007057 8.75 10.25 C9.36681641 11.08144531 9.36681641 11.08144531 9.99609375 11.9296875 C11.00035358 13.28427052 12.00059353 14.64183224 13 16 C12.67 16.66 12.34 17.32 12 18 C4.51708428 9.738041 4.51708428 9.738041 2 5 C1.34 5.99 0.68 6.98 0 8 C-0.38063221 5.6739143 -0.71269945 3.33944736 -1 1 C-0.67 0.67 -0.34 0.34 0 0 Z " fill="#B2B2B2" transform="translate(413,164)"/>
<path d="M0 0 C1 3 1 3 -0.0390625 5.3046875 C-2.9915191 10.08970338 -5.77343597 14.2706788 -10 18 C-8.35821735 13.22390502 -5.73453298 9.20617096 -3 5 C-3.66 4.67 -4.32 4.34 -5 4 C-3.35 2.68 -1.7 1.36 0 0 Z " fill="#A9A9A9" transform="translate(183,150)"/>
<path d="M0 0 C3.91301953 1.54700772 6.65135213 4.20134625 9.6875 7.0625 C5.20774254 7.0625 3.22511094 4.73239505 -0.3125 2.0625 C-2.9525 3.7125 -5.5925 5.3625 -8.3125 7.0625 C-4.84674658 0.13099315 -4.84674658 0.13099315 0 0 Z " fill="#161616" transform="translate(305.3125,372.9375)"/>
<path d="M0 0 C0.66 0.33 1.32 0.66 2 1 C0.77023437 2.12148438 0.77023437 2.12148438 -0.484375 3.265625 C-1.57296139 4.26036773 -2.66150055 5.25516213 -3.75 6.25 C-4.55824219 6.98669922 -4.55824219 6.98669922 -5.3828125 7.73828125 C-8.3243716 10.42873164 -11.2073768 13.1531511 -14 16 C-12.62228051 11.79237019 -10.73072709 9.37668023 -7.5625 6.3125 C-6.38880859 5.16201172 -6.38880859 5.16201172 -5.19140625 3.98828125 C-3 2 -3 2 0 0 Z " fill="#161616" transform="translate(299,303)"/>
<path d="M0 0 C1.66611905 -0.042721 3.33382885 -0.04063832 5 0 C6 1 6 1 6.1875 3.4375 C6 6 6 6 4 8 C1.4375 8.1875 1.4375 8.1875 -1 8 C-2 7 -2 7 -2.0625 4.4375 C-2.041875 3.633125 -2.02125 2.82875 -2 2 C-1.01 2.495 -1.01 2.495 0 3 C0.33 3.99 0.66 4.98 1 6 C1.99 5.67 2.98 5.34 4 5 C3.24849977 1.72226496 3.24849977 1.72226496 0 0 Z " fill="#1D1D1D" transform="translate(391,232)"/>
<path d="M0 0 C0.66 0.33 1.32 0.66 2 1 C-0.97 3.64 -3.94 6.28 -7 9 C-8.32 8.34 -9.64 7.68 -11 7 C-9.21475351 5.80286983 -7.4215972 4.61752721 -5.625 3.4375 C-4.62726563 2.77621094 -3.62953125 2.11492187 -2.6015625 1.43359375 C-1.74304688 0.96050781 -0.88453125 0.48742187 0 0 Z " fill="#666666" transform="translate(176,194)"/>
<path d="M0 0 C0.99 0.33 1.98 0.66 3 1 C3 4.3 3 7.6 3 11 C2.67 11 2.34 11 2 11 C1.67 8.69 1.34 6.38 1 4 C-2.15332957 4 -4.99457031 5.10950231 -8 6 C-5.63055987 3.38114512 -3.16266898 1.58133449 0 0 Z " fill="#1A1A1A" transform="translate(314,453)"/>
<path d="M0 0 C3.33136597 1.42353524 5.27664757 3.1335313 7.625 5.875 C8.21539062 6.55304688 8.80578125 7.23109375 9.4140625 7.9296875 C10.91318087 9.88666469 11.98569068 11.76048537 13 14 C8.94065655 12.44515973 6.92149038 9.78559333 4.25 6.4375 C3.45078125 5.44621094 2.6515625 4.45492187 1.828125 3.43359375 C0 1 0 1 0 0 Z " fill="#B7B7B7" transform="translate(454,190)"/>
<path d="M0 0 C8.57142857 0.85714286 8.57142857 0.85714286 12 3 C8.37673261 4.2077558 7.35853631 3.54311128 4 2 C4.33 2.99 4.66 3.98 5 5 C3.68 4.67 2.36 4.34 1 4 C0.67 2.68 0.34 1.36 0 0 Z " fill="#595959" transform="translate(508,190)"/>
<path d="M0 0 C0 0.66 0 1.32 0 2 C2.97 2.33 5.94 2.66 9 3 C9 3.33 9 3.66 9 4 C3.72 4 -1.56 4 -7 4 C-3 0 -3 0 0 0 Z " fill="#999999" transform="translate(167,234)"/>
<path d="M0 0 C-0.99 0.66 -1.98 1.32 -3 2 C-3.33 2.99 -3.66 3.98 -4 5 C-6.0625 5.6875 -6.0625 5.6875 -8 6 C-8 5.34 -8 4.68 -8 4 C-8.66 3.34 -9.32 2.68 -10 2 C-8.71211992 1.46987262 -7.41953322 0.9511671 -6.125 0.4375 C-5.40570313 0.14746094 -4.68640625 -0.14257812 -3.9453125 -0.44140625 C-2 -1 -2 -1 0 0 Z " fill="#595959" transform="translate(160,206)"/>
<path d="M0 0 C6.93 0.495 6.93 0.495 14 1 C14 1.33 14 1.66 14 2 C10.04 2 6.08 2 2 2 C1.67 2.99 1.34 3.98 1 5 C0.67 3.35 0.34 1.7 0 0 Z " fill="#969696" transform="translate(92,184)"/>
<path d="M0 0 C2 3 2 3 1.87109375 5.04296875 C0.72869755 7.60951806 -0.42008242 8.13345632 -2.9375 9.3125 C-3.64777344 9.65925781 -4.35804688 10.00601562 -5.08984375 10.36328125 C-6.03537109 10.67845703 -6.03537109 10.67845703 -7 11 C-7.66 10.67 -8.32 10.34 -9 10 C-8.43410156 9.69707031 -7.86820312 9.39414062 -7.28515625 9.08203125 C-2.58418046 6.59011363 -2.58418046 6.59011363 0 2.1875 C0 1.465625 0 0.74375 0 0 Z " fill="#151515" transform="translate(377,252)"/>
<path d="M0 0 C-1.5830577 4.2742558 -4.50568404 6.26531794 -8 9 C-8 6 -8 6 -6.7578125 4.39453125 C-5.94957031 3.61142578 -5.94957031 3.61142578 -5.125 2.8125 C-4.59132812 2.28269531 -4.05765625 1.75289062 -3.5078125 1.20703125 C-2 0 -2 0 0 0 Z " fill="#999999" transform="translate(186,186)"/>
<path d="M0 0 C4.2742558 1.5830577 6.26531794 4.50568404 9 8 C6 8 6 8 4.39453125 6.50390625 C3.61142578 5.54291016 3.61142578 5.54291016 2.8125 4.5625 C2.28269531 3.92441406 1.75289063 3.28632813 1.20703125 2.62890625 C0 1 0 1 0 0 Z " fill="#909090" transform="translate(430,195)"/>
<path d="M0 0 C3.80635497 3.20760251 7.54563567 6.40746109 11 10 C8 10 8 10 5.95703125 8.3203125 C5.24933594 7.59585938 4.54164063 6.87140625 3.8125 6.125 C2.73935547 5.04605469 2.73935547 5.04605469 1.64453125 3.9453125 C0 2 0 2 0 0 Z " fill="#878787" transform="translate(460,186)"/>
<path d="M0 0 C0.66 0.33 1.32 0.66 2 1 C-0.31 3.31 -2.62 5.62 -5 8 C-5.99 7.34 -6.98 6.68 -8 6 C-5.36 4.02 -2.72 2.04 0 0 Z " fill="#7A7A7A" transform="translate(161,172)"/>
<path d="M0 0 C0.66 0.33 1.32 0.66 2 1 C1.67 3.64 1.34 6.28 1 9 C0.67 8.01 0.34 7.02 0 6 C-0.99 6.33 -1.98 6.66 -3 7 C-1.125 1.125 -1.125 1.125 0 0 Z " fill="#A2A2A2" transform="translate(231,164)"/>
<path d="M0 0 C4.75 0.75 4.75 0.75 7 3 C7 3.99 7 4.98 7 6 C2.32307692 4.52307692 2.32307692 4.52307692 0.6875 1.875 C0.460625 1.25625 0.23375 0.6375 0 0 Z " fill="#4C4C4C" transform="translate(502,187)"/>
<path d="M0 0 C-2.97 2.475 -2.97 2.475 -6 5 C-6 4.34 -6 3.68 -6 3 C-6.66 2.67 -7.32 2.34 -8 2 C-5.44123378 -0.55876622 -3.37797483 -1.68898741 0 0 Z " fill="#515151" transform="translate(200,211)"/>
<path d="M0 0 C4.41889613 1.35021826 6.34345343 3.26115668 9 7 C6 7 6 7 4.39453125 5.46875 C3.87246094 4.8190625 3.35039062 4.169375 2.8125 3.5 C2.28269531 2.8503125 1.75289063 2.200625 1.20703125 1.53125 C0.80871094 1.0259375 0.41039062 0.520625 0 0 Z " fill="#8C8C8C" transform="translate(479,169)"/>
<path d="M0 0 C3.16115776 1.36983503 3.9927092 1.9890638 6 5 C4.35 5.33 2.7 5.66 1 6 C0.67 4.02 0.34 2.04 0 0 Z " fill="#ADADAD" transform="translate(442,163)"/>
<path d="M0 0 C4 1 4 1 6 4 C5.34 5.32 4.68 6.64 4 8 C2.68 5.36 1.36 2.72 0 0 Z " fill="#ABABAB" transform="translate(460,150)"/>
<path d="M0 0 C3.7952131 1.49097658 5.61042731 3.75700849 8 7 C7.01 7 6.02 7 5 7 C0 1.53488372 0 1.53488372 0 0 Z " fill="#141414" transform="translate(452,112)"/>
<path d="M0 0 C0.66 0.33 1.32 0.66 2 1 C2 1.99 2 2.98 2 4 C0.02 4.33 -1.96 4.66 -4 5 C-3 2 -3 2 0 0 Z " fill="#1B1B1B" transform="translate(301,458)"/>
<path d="M0 0 C2.88437779 1.29299694 4.87219421 2.65941363 7 5 C6.34 5.66 5.68 6.32 5 7 C3.29115995 5.37660195 1.62553283 3.70680947 0 2 C0 1.34 0 0.68 0 0 Z " fill="#616161" transform="translate(438,203)"/>
<path d="M0 0 C3.37503669 1.1858237 5.64722731 2.27573689 8 5 C3.77471908 5 2.95481492 4.74375671 0 2 C0 1.34 0 0.68 0 0 Z " fill="#626262" transform="translate(470,196)"/>
<path d="M0 0 C1.65 0.33 3.3 0.66 5 1 C4.01 1.33 3.02 1.66 2 2 C2 2.99 2 3.98 2 5 C-0.475 4.01 -0.475 4.01 -3 3 C-2.01 2.67 -1.02 2.34 0 2 C0 1.34 0 0.68 0 0 Z " fill="#585858" transform="translate(492,208)"/>
<path d="M0 0 C3.465 1.98 3.465 1.98 7 4 C5.02 4.99 5.02 4.99 3 6 C0 2.25 0 2.25 0 0 Z " fill="#5A5A5A" transform="translate(391,189)"/>
<path d="M0 0 C1.32 1.32 2.64 2.64 4 4 C3.67 4.66 3.34 5.32 3 6 C2.67 5.67 2.34 5.34 2 5 C1.34 5.99 0.68 6.98 0 8 C-0.38063221 5.6739143 -0.71269945 3.33944736 -1 1 C-0.67 0.67 -0.34 0.34 0 0 Z " fill="#969696" transform="translate(413,164)"/>
</svg>
