<?xml version="1.0" encoding="UTF-8"?>
<svg version="1.1" xmlns="http://www.w3.org/2000/svg" width="64" height="64">
<path d="M0 0 C1.12855637 0.71277244 2.23681107 1.45969793 3.3125 2.25 C4.199375 2.8275 5.08625 3.405 6 4 C11.51773368 9.36860574 14.59958876 15.57347358 15.3125 23.25 C15.39014918 29.49105313 14.31624291 34.18057135 10.95703125 39.4609375 C10.12082406 41.24562025 10.12082406 41.24562025 10.81640625 43.10546875 C13.39861573 46.80686041 16.81723133 49.71368582 20.14453125 52.74023438 C24.23430348 56.63690598 24.23430348 56.63690598 24.6796875 60.12890625 C24.49792969 61.17884766 24.49792969 61.17884766 24.3125 62.25 C19.85271925 62.62471526 19.85271925 62.62471526 17.4597168 60.96484375 C16.89937744 60.37832031 16.33903809 59.79179688 15.76171875 59.1875 C15.14619141 58.55585937 14.53066406 57.92421875 13.89648438 57.2734375 C13.27064453 56.60570312 12.64480469 55.93796875 12 55.25 C11.35482422 54.58226562 10.70964844 53.91453125 10.04492188 53.2265625 C8.45561073 51.57838797 6.87912098 49.91970902 5.3125 48.25 C2.86407643 49.21882986 0.44404188 50.187883 -1.9375 51.3125 C-10.05462508 54.07970173 -18.33144478 53.80708443 -26.109375 50.09375 C-32.70196502 46.11164865 -37.24276824 40.58419528 -39.6875 33.25 C-40.39354268 22.84455137 -40.41929546 14.74911364 -33.375 6.5625 C-24.21153517 -1.32234183 -11.79717973 -5.78515545 0 0 Z M-29.125 10.5 C-33.69158229 16.61039847 -35.40578537 22.17515773 -34.328125 29.7890625 C-32.72714919 35.93915251 -29.06142779 40.87567325 -23.6875 44.25 C-17.70736698 47.4680088 -12.26800385 47.9552816 -5.6875 46.25 C1.04141582 43.30242954 5.81165486 38.79745215 8.6875 32 C9.95029739 24.42321565 9.17029223 18.27549213 4.69140625 11.93359375 C0.16428272 6.40614265 -5.6156621 3.86962751 -12.5625 2.8125 C-18.88701042 3.69793146 -24.7304322 5.71090741 -29.125 10.5 Z " fill="#FFFFFF" transform="translate(39.6875,1.75)"/>
<path d="M0 0 C2.125 0.9375 2.125 0.9375 4 2 C3.54942898 4.10266478 3.05358757 5.89639737 2.0625 7.8125 C0.6263721 10.76923392 -0.14735047 13.83301604 -1 17 C-2.65 16.67 -4.3 16.34 -6 16 C-6.49196648 10.09640219 -5.31411786 5.95908147 -2 1 C-1.34 0.67 -0.68 0.34 0 0 Z " fill="#FFFFFF" transform="translate(15,13)"/>
</svg>
